<?xml version="1.0" encoding="UTF-8" standalone="no"?>
<!-- Svg Vector Icons : http://www.onlinewebfonts.com/icon -->

<svg
   version="1.1"
   x="0px"
   y="0px"
   viewBox="0 0 236 236"
   enable-background="new 0 0 256 256"
   xml:space="preserve"
   id="svg14"
   sodipodi:docname="icon.svg"
   inkscape:version="1.1.2 (0a00cf5339, 2022-02-04)"
   width="236"
   height="236"
   xmlns:inkscape="http://www.inkscape.org/namespaces/inkscape"
   xmlns:sodipodi="http://sodipodi.sourceforge.net/DTD/sodipodi-0.dtd"
   xmlns="http://www.w3.org/2000/svg"
   xmlns:svg="http://www.w3.org/2000/svg"><defs
   id="defs18" /><sodipodi:namedview
   id="namedview16"
   pagecolor="#ffffff"
   bordercolor="#666666"
   borderopacity="1.0"
   inkscape:pageshadow="2"
   inkscape:pageopacity="0.0"
   inkscape:pagecheckerboard="0"
   showgrid="false"
   inkscape:zoom="1.6443021"
   inkscape:cx="115.24646"
   inkscape:cy="122.54439"
   inkscape:window-width="1366"
   inkscape:window-height="704"
   inkscape:window-x="0"
   inkscape:window-y="0"
   inkscape:window-maximized="1"
   inkscape:current-layer="g10" />
<metadata
   id="metadata2"> Svg Vector Icons : http://www.onlinewebfonts.com/icon </metadata>
<g
   id="g12"
   inkscape:groupmode="layer"
   transform="translate(-10,-10)"><g
     id="g10"><path
       fill="#000000"
       d="M 128,10 C 63.1,10 10,63.1 10,128 10,192.9 63.1,246 128,246 192.9,246 246,192.9 246,128 246,63.1 192.9,10 128,10 Z m 0,219.8 C 72,229.8 26.2,184.1 26.2,128 26.2,71.9 72,26.2 128,26.2 c 56,0 101.8,45.7 101.8,101.8 0,56 -45.7,101.8 -101.8,101.8 z"
       id="path4"
       style="fill:#7ebfa7;fill-opacity:1" /><ellipse
       style="opacity:0.8;fill:#d5f6ff;stroke-width:18.7042;stroke-linejoin:round"
       id="path284"
       cx="129.60286"
       cy="127.9794"
       rx="69.958015"
       ry="70.159943" /><path
       fill="#000000"
       d="m 115.23376,57.170514 c -1.5,0 -3,1.5 -3,3 v 25.1 0 c 0,1.5 -1.5,3 -2.9,3 -3,0 -4.4,-1.5 -4.4,-3 v 0 -25.1 c 0,-1.5 -1.5,-3 -2.9,-3 -1.5,0 -2.999999,1.5 -2.999999,3 v 25.1 0 c 0,1.5 -1.5,3 -2.9,3 -3,0 -4.4,-1.5 -4.4,-3 v 0 -25.1 c 0,-1.5 -1.5,-3 -2.9,-3 -3,0 -4.4,1.5 -4.4,3 v 31 0 0 8.899996 c 0,8.9 5.9,13.3 11.8,14.8 v 0 84.1 c 0,3 1.5,4.4 4.399999,4.4 3,0 4.4,-1.5 4.4,-4.4 v -82.6 0 c 7.4,-1.5 13.3,-7.4 13.3,-16.2 v -8.899996 0 0 -31 c -0.2,-1.6 -1.7,-3.1 -3.1,-3.1 z"
       id="path6"
       style="fill:#eff700;fill-opacity:0.602279;stroke:#6e6e6e;stroke-width:2.3;stroke-miterlimit:4;stroke-dasharray:none;stroke-opacity:1" /><path
       fill="#000000"
       d="m 153.53376,54.270514 c -11.8,0 -20.7,19.2 -20.7,31 0,14.799996 7.4,23.599996 16.2,26.599996 v 0 88.5 c 0,3 1.5,4.4 4.4,4.4 3,0 4.4,-1.5 4.4,-4.4 v -88.5 0 c 8.9,-2.9 16.2,-10.3 16.2,-26.599996 1.6,-11.8 -8.7,-31 -20.5,-31 z"
       id="path8"
       style="fill:#eff700;fill-opacity:0.602279;stroke:#6e6e6e;stroke-width:2.3;stroke-miterlimit:4;stroke-dasharray:none;stroke-opacity:1" /></g></g>
</svg>
